<svg width="174" height="52" viewBox="0 0 174 52" fill="none" xmlns="http://www.w3.org/2000/svg">
<path d="M51.2082 21.0509C49.734 17.4472 47.3597 14.3007 44.3221 11.9248C41.2845 9.54897 37.6896 8.02673 33.8957 7.50983C30.1017 6.99293 26.2413 7.49942 22.699 8.97882C19.1567 10.4582 16.0563 12.8589 13.7068 15.9415C11.3573 19.0242 9.84068 22.6812 9.30816 26.5481C8.77564 30.415 9.24578 34.3568 10.6717 37.9806C12.0977 41.6044 14.4296 44.7836 17.4352 47.2015C20.4408 49.6194 24.015 51.1915 27.8017 51.7611C27.3057 49.9377 26.8011 47.9223 26.3564 45.7848C27.6501 46.641 29.0118 47.3852 30.4271 48.0096C30.4271 48.0096 30.5298 49.8941 30.6666 51.9967C32.1959 52.0236 33.7237 51.8862 35.2247 51.5866C35.186 51.3674 35.186 51.1428 35.2247 50.9236C35.4727 49.2921 36.1569 46.3519 36.2937 44.4587C37.28 43.5176 38.1167 42.4256 38.7738 41.2219L38.7225 41.6058C38.2521 45.3224 37.2686 49.2921 36.67 50.3914C36.4762 50.7553 36.2377 51.0924 35.9602 51.3947C39.0558 50.6538 41.9564 49.235 44.461 47.2366C46.9656 45.2381 49.0141 42.7079 50.4647 39.8213C51.9152 36.9347 52.733 33.7607 52.8614 30.5196C52.9898 27.2784 52.4257 24.0475 51.2082 21.0509ZM49.9511 24.3575C49.5748 24.7326 48.7966 24.9856 48.6683 23.8514C48.54 22.7172 48.5058 21.9233 48.5058 21.9233C48.5058 21.9233 46.8553 18.9308 46.2396 18.8959C45.6238 18.861 41.2538 21.9233 40.0993 23.2582C39.0987 24.3836 38.9021 24.3051 38.9021 26.2856C38.9021 27.7775 39.0902 33.4135 38.9876 37.7234L32.0178 39.6166C29.8271 40.258 27.5993 40.7592 25.3473 41.1172L24.4921 36.0308H24.3724L22.1746 24.5407C22.1746 24.5407 18.9163 23.2843 17.719 22.9441C17.1569 22.6932 16.5361 22.6116 15.9299 22.709C15.3238 22.8064 14.7576 23.0787 14.2983 23.4937C13.8297 23.9123 13.4549 24.429 13.1996 25.0087C12.9443 25.5883 12.8144 26.2172 12.8188 26.8527C12.9996 27.2582 13.1372 27.6823 13.2293 28.1177C13.2721 28.5365 12.2031 28.4929 11.5189 28.4929C10.8348 28.4929 10.7322 27.2365 11.2709 25.7621C11.6912 24.6284 12.2122 23.5362 12.8274 22.4991C13.29 21.5728 13.8868 20.7228 14.5976 19.9778C14.5976 19.9778 14.7173 19.6811 15.6666 19.7684C16.6158 19.8556 21.8924 20.1435 21.8924 20.1435L21.9351 18.1631C27.6703 17.3552 33.4546 16.9645 39.2441 16.994C39.2441 17.5262 39.2441 18.0584 39.2441 18.5906C41.437 17.5696 43.7984 16.9777 46.2054 16.8457C46.3341 16.8423 46.4617 16.8717 46.5767 16.9311C46.6916 16.9905 46.7903 17.078 46.8638 17.1859C47.1546 17.5611 48.9249 19.8033 49.1301 20.1261C49.705 20.9642 50.2277 21.8384 50.6951 22.7434C50.5349 23.3165 50.2835 23.8588 49.9511 24.3487V24.3575Z" fill="#FDC305"/>
<path d="M48.2839 19.0181C48.6859 19.5415 49.0365 20.0039 49.1391 20.1435C49.714 20.9817 50.2367 21.8558 50.7041 22.7609C50.5414 23.3151 50.2931 23.8393 49.9687 24.3138C49.5924 24.689 48.8142 24.942 48.6859 23.8078C48.5576 22.6736 48.5063 21.9233 48.5063 21.9233C48.5063 21.9233 46.8558 18.9308 46.24 18.8959C45.6243 18.861 41.2543 21.9233 40.0998 23.2582C39.0992 24.3836 38.9025 24.3051 38.9025 26.2856C38.9025 27.5942 39.0479 32.0874 39.0137 36.0832C40.5616 36.2577 42.8364 36.6939 43.5205 37.7234C43.5205 37.7234 43.2725 31.4592 50.1996 34.7396C50.1996 34.7396 50.439 26.1983 60 28.3882C56.7498 24.4952 52.7655 21.3086 48.2839 19.0181Z" fill="#F06351"/>
<path d="M39.2788 16.994C39.3136 12.1595 38.9128 7.332 38.0815 2.57236C38.0815 2.57236 37.9533 1.43817 37.3375 2.36297C36.8294 3.46856 36.4837 4.64443 36.3113 5.85277C32.6555 5.61347 28.986 5.71276 25.3478 6.14941C24.6465 3.75017 23.4493 2.6596 22.8763 2.94751C22.3033 3.23542 22.2349 5.80915 22.2349 5.80915L21.9527 18.1631C27.6936 17.3544 33.4836 16.9637 39.2788 16.994Z" fill="#F06351"/>
<path d="M38.7821 41.2219C38.8933 40.2884 38.9531 39.0495 38.9874 37.6798L32.0179 39.573C29.8283 40.2291 27.6005 40.7449 25.3478 41.1172L26.297 45.4795C26.297 45.5755 26.297 45.6714 26.3569 45.7674C27.6505 46.6235 29.0121 47.3677 30.4273 47.9921C32.4957 46.9834 34.4656 45.777 36.3107 44.3889V44.4413C37.2925 43.5048 38.1262 42.4188 38.7821 41.2219Z" fill="#E55645"/>
<path d="M27.366 14.2632C27.3233 14.176 28.2212 14.8565 28.5718 15.0659C28.9224 15.2752 29.0934 15.4323 29.0934 15.5806C29.0934 15.7289 28.8711 15.8772 28.5632 15.8772C28.2554 15.8772 27.7765 15.7725 27.7081 15.6504C27.6397 15.5282 28.2212 15.6504 28.5119 15.6504H28.7599C28.2334 15.2574 27.7642 14.7904 27.366 14.2632Z" fill="black"/>
<path d="M33.7799 14.3592C33.7799 14.3592 32.9247 15.4759 32.8478 15.5283C32.7708 15.5806 32.7024 15.8249 33.0102 15.7813C33.3637 15.7274 33.7125 15.6458 34.0535 15.537C34.1476 15.4846 34.1134 15.3625 33.9509 15.3799C33.7884 15.3974 33.3694 15.4236 33.0957 15.4759L33.8226 14.3679C33.8226 14.3679 33.8483 14.2632 33.7799 14.3592Z" fill="black"/>
<path d="M31.0946 19.6898C31.491 19.5117 31.8186 19.205 32.0267 18.8174C32.2661 18.2416 32.0267 18.0235 31.6504 17.9449C31.1328 17.8486 30.5986 17.9545 30.1539 18.2416C29.8204 18.5644 29.8632 18.8785 30.1539 19.114C30.4428 19.3451 30.7588 19.5386 31.0946 19.6898Z" fill="black"/>
<path d="M30.7866 20.7891C30.6885 20.987 30.5551 21.1645 30.3933 21.3126C30.1497 21.5125 29.8503 21.6286 29.5381 21.6441C29.0673 21.6913 28.5965 21.5541 28.2212 21.2603C28.0488 21.1574 27.8954 21.0245 27.768 20.8677C27.6824 20.7726 27.5773 20.6981 27.4601 20.6495C27.4601 20.6495 28.1015 24.2353 29.6578 24.8111C31.2142 25.3869 31.505 24.1481 31.5477 23.8165C31.5998 22.8236 31.3553 21.8379 30.8465 20.9898C30.8465 20.7281 30.8294 20.9026 30.7866 20.7891Z" fill="#F06351"/>
<path d="M29.3328 21.7837C28.9326 21.725 28.5483 21.5842 28.2029 21.3698C27.8575 21.1554 27.5583 20.8718 27.3233 20.5361C27.3022 20.5121 27.2906 20.4811 27.2906 20.4489C27.2906 20.4167 27.3022 20.3856 27.3233 20.3616C27.3344 20.35 27.3477 20.3408 27.3624 20.3345C27.3771 20.3282 27.3928 20.325 27.4088 20.325C27.4247 20.325 27.4405 20.3282 27.4551 20.3345C27.4698 20.3408 27.4831 20.35 27.4943 20.3616C27.7059 20.6645 27.9744 20.9215 28.2841 21.1177C28.5939 21.3139 28.9387 21.4454 29.2986 21.5045C29.5834 21.4827 29.859 21.3922 30.1028 21.2406C30.3466 21.0889 30.5517 20.8804 30.7011 20.6321L30.8208 20.4663L30.9063 20.6583C30.9063 20.6583 31.2313 21.3213 31.7615 21.3562C32.2916 21.3911 32.6679 20.9898 33.1553 20.2308C33.1735 20.203 33.2017 20.1837 33.2338 20.1772C33.2659 20.1706 33.2992 20.1774 33.3264 20.1959C33.3536 20.2144 33.3725 20.2432 33.3789 20.2759C33.3853 20.3086 33.3787 20.3426 33.3606 20.3704C32.7905 21.2254 32.2517 21.6354 31.7444 21.6005C31.5482 21.574 31.3604 21.503 31.1947 21.3928C31.029 21.2826 30.8895 21.136 30.7866 20.9636C30.6193 21.202 30.402 21.3993 30.1505 21.5412C29.899 21.683 29.6197 21.7659 29.3328 21.7837Z" fill="black"/>
<path d="M31.009 33.5269C32.78 33.5269 34.2158 32.0621 34.2158 30.2552C34.2158 28.4483 32.78 26.9835 31.009 26.9835C29.2379 26.9835 27.8022 28.4483 27.8022 30.2552C27.8022 32.0621 29.2379 33.5269 31.009 33.5269Z" fill="#FDC305"/>
<path d="M35.259 27.5942L32.5824 28.7372L33.5658 23.8253L27.1522 32.3404L29.8288 31.1975L28.8454 36.1181L35.259 27.5942ZM28.9395 30.9357L32.4969 26.2158L31.8042 29.7056L33.5145 28.9902L29.9314 33.7188L30.6241 30.229L28.9395 30.9357Z" fill="#111111"/>
<path d="M27.7422 29.6532C28.2712 29.6532 28.7 29.2157 28.7 28.6761C28.7 28.1364 28.2712 27.6989 27.7422 27.6989C27.2133 27.6989 26.7845 28.1364 26.7845 28.6761C26.7845 29.2157 27.2133 29.6532 27.7422 29.6532Z" fill="#111111"/>
<path d="M33.3181 33.1954C33.6912 33.1954 33.9937 32.8868 33.9937 32.5061C33.9937 32.1255 33.6912 31.8169 33.3181 31.8169C32.945 31.8169 32.6425 32.1255 32.6425 32.5061C32.6425 32.8868 32.945 33.1954 33.3181 33.1954Z" fill="#111111"/>
<path d="M34.1391 31.3022C34.3044 31.3022 34.4384 31.1654 34.4384 30.9968C34.4384 30.8282 34.3044 30.6914 34.1391 30.6914C33.9738 30.6914 33.8398 30.8282 33.8398 30.9968C33.8398 31.1654 33.9738 31.3022 34.1391 31.3022Z" fill="#111111"/>
<path d="M39.236 18.5731C37.6923 19.9928 36.2384 21.511 34.8831 23.1186C33.5331 24.7145 32.0097 26.1487 30.3421 27.3936C30.1539 26.9312 28.9481 26.0675 28.9481 26.0675C28.9481 26.0675 26.2628 24.1917 24.5011 22.7172C23.5488 21.908 22.6516 21.0336 21.8158 20.0999L20.1055 20.0039C22.5744 23.6832 26.1915 26.4015 30.3677 27.7164C31.1032 27.5942 33.1727 26.0849 34.7206 24.8548C36.5519 23.2659 38.2669 21.5426 39.8518 19.6986C40.2778 19.1821 40.6081 18.5908 40.8267 17.9537C39.8518 18.2852 39.236 18.5731 39.236 18.5731Z" fill="#F06351"/>
<path d="M22.175 24.5407C22.175 24.5407 18.9168 23.2843 17.7195 22.9441C17.1573 22.6932 16.5365 22.6116 15.9304 22.709C15.3243 22.8064 14.7581 23.0787 14.2987 23.4937C13.8301 23.9123 13.4554 24.429 13.2001 25.0087C12.9448 25.5883 12.8149 26.2172 12.8193 26.8527C13 27.2582 13.1377 27.6823 13.2298 28.1177C13.2725 28.5365 12.2035 28.4929 11.5194 28.4929C10.8352 28.4929 10.7326 27.2365 11.2714 25.7621C11.6917 24.6284 12.2127 23.5362 12.8278 22.4991C8.16705 24.9769 0 30.7002 0 30.7002C2.33611 30.5564 4.68014 30.6265 7.00399 30.9096C11.4937 31.372 11.2799 34.9839 11.2799 34.9839C12.8591 34.5398 14.4684 34.2161 16.0946 34.0155C17.9076 33.8933 18.0359 35.8651 18.0359 35.8651L18.4892 39.2327C19.1774 38.4731 19.9364 37.7835 20.7554 37.1738C21.8111 36.3116 23.1553 35.9046 24.5011 36.0396L22.175 24.5407Z" fill="#F06351"/>
<path d="M74.2184 34.4708C73.3349 33.1952 72.9125 31.6692 73.0177 30.1337V23.8663C72.9063 22.3195 73.3223 20.7802 74.2013 19.4875C74.996 18.4903 76.3539 17.9945 78.275 18C80.1961 18.0056 81.4969 18.4429 82.1773 19.312C83.0069 20.389 83.4117 21.7206 83.3179 23.0641V24.5348H79.7673V22.9388C79.7625 22.5188 79.7253 22.0998 79.6558 21.6853C79.6129 21.3852 79.4715 21.1067 79.2527 20.8914C79.1177 20.7786 78.9609 20.6931 78.7916 20.64C78.6222 20.5869 78.4437 20.5673 78.2664 20.5822C78.0119 20.5452 77.7518 20.5855 77.5217 20.6977C77.2915 20.8098 77.1023 20.9883 76.98 21.209C76.7545 21.7958 76.6552 22.4216 76.6884 23.0474V31.0028C76.6493 31.6327 76.7639 32.2628 77.0229 32.8412C77.1466 33.0499 77.3302 33.2188 77.5512 33.3272C77.7721 33.4356 78.0207 33.4787 78.2664 33.4513C78.5079 33.4845 78.754 33.4427 78.9696 33.3316C79.1852 33.2206 79.3593 33.046 79.4671 32.8329C79.6746 32.2449 79.7648 31.6238 79.733 31.0028V29.3315H83.2836V30.7772C83.3881 32.1405 83.0164 33.4982 82.2287 34.6295C81.474 35.5487 80.1704 36 78.3179 36C76.4654 36 75.016 35.4986 74.2184 34.4708Z" fill="#111111"/>
<path d="M88.1555 18.2424H92.2207L95.6513 35.7911H92.2722L91.6633 31.9137H88.8159L88.1298 35.766H84.6993L88.1555 18.2424ZM91.2859 29.7075L90.2053 22.6546L89.1332 29.7075H91.2859Z" fill="#111111"/>
<path d="M98.2848 20.883H95.506V18.2424H104.7V20.883H101.955V35.766H98.2762L98.2848 20.883Z" fill="#111111"/>
<path d="M111.913 18.2424H118.886V20.0641H114.426V25.8552H118.045V27.585H114.426V34.0111H118.929V35.766H111.913V18.2424Z" fill="#444444"/>
<path d="M120.953 18.2424H122.669L127.814 29.883V18.2424H129.907V35.7911H128.303L123.157 23.8245V35.766H121.03L120.953 18.2424Z" fill="#444444"/>
<path d="M132.678 18.2424H139.642V20.0641H135.182V25.8552H138.836V27.585H135.216V34.0111H139.693V35.766H132.678V18.2424Z" fill="#444444"/>
<path d="M141.709 18.2424H145.328C146.754 18.1306 148.175 18.5188 149.333 19.3371C150.191 20.0641 150.611 21.2507 150.611 22.897C150.611 25.1254 149.871 26.4875 148.39 26.9833L150.963 35.766H148.527L146.169 27.5432H144.222V35.766H141.709V18.2424ZM145.14 25.7633C145.966 25.8411 146.792 25.6146 147.455 25.1282C147.725 24.8174 147.926 24.4561 148.047 24.0667C148.168 23.6772 148.206 23.2678 148.158 22.8635C148.176 22.2966 148.091 21.7311 147.91 21.1922C147.836 20.9936 147.722 20.8113 147.575 20.6563C147.427 20.5013 147.25 20.3766 147.052 20.2897C146.495 20.0672 145.895 19.9673 145.294 19.9973H144.188V25.7967L145.14 25.7633Z" fill="#444444"/>
<path d="M153.991 34.4708C153.171 33.1225 152.791 31.5634 152.902 30V24.1504C152.872 23.0216 153.017 21.8949 153.33 20.8078C153.578 19.9906 154.105 19.2802 154.823 18.7939C155.69 18.2848 156.693 18.0403 157.704 18.092C158.358 18.0314 159.018 18.1107 159.637 18.3243C160.256 18.5379 160.82 18.8807 161.289 19.3287C162.112 20.4519 162.501 21.8223 162.387 23.1978V23.8496H160.029V23.3064C160.045 22.6568 159.993 22.0072 159.874 21.3677C159.796 20.9579 159.564 20.5913 159.222 20.3399C158.777 20.0839 158.263 19.9645 157.747 19.9973C157.187 19.9506 156.63 20.1184 156.195 20.4652C155.839 20.7941 155.607 21.2294 155.535 21.702C155.426 22.3903 155.377 23.0864 155.389 23.7828V30.2925C155.321 31.2817 155.494 32.2725 155.895 33.1839C156.128 33.4641 156.423 33.6888 156.758 33.8408C157.094 33.9928 157.461 34.068 157.831 34.0608C158.2 34.0535 158.564 33.9639 158.893 33.7989C159.222 33.6339 159.507 33.3978 159.728 33.1086C160.142 32.1448 160.321 31.1009 160.252 30.0585V28.8217H157.97V27.0919H162.516V35.766H160.963L160.715 33.7521C160.518 34.4212 160.095 35.0058 159.514 35.4109C158.933 35.816 158.229 36.0177 157.516 35.9833C156.845 36.0409 156.17 35.9325 155.554 35.668C154.938 35.4036 154.4 34.9918 153.991 34.4708Z" fill="#444444"/>
<path d="M167.731 29.5822L163.846 18.2424H166.178L168.931 26.6992L171.642 18.2424H174L170.141 29.5822V35.766H167.739L167.731 29.5822Z" fill="#444444"/>
</svg>
